<?xml version="1.0" encoding="UTF-8"?><svg id="a" xmlns="http://www.w3.org/2000/svg" viewBox="0 0 100 78"><defs><style>.b{fill:#fff;}</style></defs><path class="b" d="M78.41,0c1.14,.26,2.31,.43,3.43,.78,5.01,1.58,7.69,5.14,8.56,10.2,.18,1.03,.26,2.06,.26,3.1,0,15.95,0,31.9,0,47.85,0,3.51-.75,6.83-3.06,9.6-2.71,3.24-6.43,4.34-10.46,4.46-4.07,.13-8.15,.04-12.23,.04-12.63,0-25.26,0-37.89,0-6.09,0-10.7-3.67-12.07-9.56-.22-.95-.12-1.28,.99-1.28,19.06,.04,38.12,.03,57.19,.03,4.11,0,5.17-1.05,5.17-5.18,0-14.59,0-29.18,0-43.78,0-3.4-2.03-5.41-5.46-5.41-18.94,0-37.89-.01-56.83,.03-1.2,0-1.29-.36-1.04-1.34C16.24,4.51,19.36,1.37,24.46,.24c.18-.04,.41,.02,.48-.24h.48c.37,.22,.78,.12,1.17,.12,16.56,0,33.13,0,49.69,0,.39,0,.8,.11,1.17-.12h.96Z"/><path class="b" d="M43.4,17.43c9.11,0,18.22,.02,27.33-.03,1.03,0,1.24,.28,1.21,1.25-.08,2.6-.07,5.2,0,7.79,.03,.92-.24,1.11-1.12,1.11-14.75-.03-29.49,0-44.24-.06-1.27,0-1.54,.37-1.43,1.51,.1,1.07,.09,2.16,0,3.23-.08,.95,.29,1.09,1.14,1.09,4.88-.04,9.75-.02,14.63-.02,9.95,0,19.9,.01,29.85-.02,.91,0,1.21,.18,1.18,1.15-.08,2.56-.08,5.12,0,7.67,.03,1.02-.17,1.33-1.27,1.32-14.75-.04-29.49-.02-44.24-.06-1.04,0-1.4,.22-1.29,1.29,.11,1.07,.12,2.17,0,3.23-.13,1.17,.36,1.32,1.38,1.32,8.39-.04,16.78-.02,25.18-.02,6.39,0,12.79,.02,19.18-.02,.82,0,1.08,.17,1.06,1.04-.07,2.44-.07,4.88,0,7.31,.03,.99-.23,1.24-1.23,1.24-14.31-.04-28.61-.02-42.92-.02-4,0-7.99-.02-11.99,.02-.84,0-1.16-.12-1.15-1.08,.04-13.07,.03-26.15,0-39.22,0-.84,.22-1.05,1.05-1.05,9.23,.03,18.46,.02,27.69,.02Z"/>
</svg>