<?xml version="1.0" encoding="UTF-8"?><svg id="a" xmlns="http://www.w3.org/2000/svg" viewBox="0 0 466.04 87.79"><defs><style>.b{fill:#fff;}</style></defs><path class="b" d="M72.23,0c.04,.19,.18,.21,.35,.24,7,1.23,11.19,5.64,12.1,12.75,.14,1.11,.22,2.23,.22,3.34,.01,18.33,.01,36.66,0,54.99,0,3.19-.52,6.28-2.04,9.13-2.09,3.91-5.48,5.99-9.72,6.87-.55,.11-1.18,0-1.63,.47h-.96c-.48-.25-1-.07-1.49-.12-18.39,0-36.78,0-55.17,0-.47,0-.96-.12-1.41,.12h-1.44c-5.06-.89-8.35-3.92-10.37-8.53-.43-.97-.38-2.01-.67-2.99v-.96c.66-.54,1.45-.38,2.19-.38,18.07,0,36.14,0,54.2,0,2.76,0,5.52,0,8.27,0,.88,0,1.76-.07,2.62-.23,2.07-.38,2.98-1.32,3.28-3.39,.08-.52,.07-1.04,.07-1.56,0-16.98,0-33.96,0-50.94,0-1.18-.12-2.31-.73-3.35-.94-1.6-2.28-2.54-4.17-2.6-.56-.02-1.12-.01-1.68-.01-20.59,0-41.17,0-61.76,0-.78,0-1.61,.18-2.31-.38v-1.44c.33-1.85,.92-3.6,1.97-5.17C4.1,2.69,6.93,.56,10.8,0h61.43Z"/><path class="b" d="M0,67.64v-.24c.22-.37,.12-.78,.12-1.17,0-14.89,0-29.78,0-44.67,0-.39,.11-.8-.12-1.17v-.48c.66-.54,1.45-.38,2.19-.38,17.56,0,35.11,0,52.67,0,2.48,0,4.96-.02,7.44,0,1.69,.02,1.93,.29,1.93,1.97,0,2.92,0,5.84,0,8.75,0,1.45-.27,1.74-1.75,1.78-1.52,.04-3.04,.01-4.56,.01-14.44,0-28.87,0-43.31,0-.44,0-.88,.01-1.32,0-.73,0-1.11,.31-1.12,1.07-.02,1.32,0,2.64-.02,3.96,0,.59,.29,.87,.88,.89,.48,.01,.96,.02,1.44,.02,15.68,0,31.35,0,47.03,0,2.65,0,2.73,.09,2.73,2.78,0,2.68,0,5.36,0,8.03,0,1.35-.27,1.62-1.58,1.7-.52,.03-1.04,.02-1.56,.02-16,0-31.99,.01-47.99-.02-.74,0-1.08,.08-.99,.95,.13,1.27,.06,2.56,.03,3.83-.02,.8,.28,1.2,1.11,1.17,.44-.02,.88,0,1.32,0,15.68,0,31.35,0,47.03,0q2.63,0,2.62,2.64c0,2.44,0,4.88,0,7.32,0,1.52-.27,1.79-1.81,1.85-.2,0-.4,0-.6,0-19.88,0-39.75,0-59.63,0-.77,0-1.64,.21-2.19-.62Z"/><path class="b" d="M12.48,87.79c.27-.35,.66-.24,1-.24,18.47,0,36.94,0,55.42,0,.16,0,.32,.02,.48,.04,.07,.05,.08,.1,.06,.14-.03,.04-.05,.06-.07,.06H12.48Z"/><path class="b" d="M0,20.39c.39,.35,.23,.82,.23,1.24,0,14.84,0,29.69,0,44.53,0,.42,.16,.89-.23,1.24V20.39Z"/><path class="b" d="M466.04,30.22c-.45-.96-.44-1.92,0-2.88v2.88Z"/><path class="b" d="M69.35,87.79c0-.07,0-.13,.02-.2,.4,.05,.86-.26,1.18,.2h-1.2Z"/><path class="b" d="M285.69,84.69c-8.84,0-17.67,0-26.51,0-3.72,0-5.76-2.06-5.76-5.8,0-14.11,0-28.22-.02-42.33,0-.97,.21-1.26,1.23-1.26,16.15,.04,32.31,.04,48.46,0,1.03,0,1.24,.3,1.22,1.26-.06,3.84-.06,7.67,0,11.51,.02,.96-.25,1.17-1.18,1.17-10.8-.03-21.59,0-32.39-.05-1.02,0-1.23,.29-1.22,1.25,.05,6.11,.04,12.23,0,18.35,0,.93,.2,1.19,1.17,1.19,14-.04,27.99,0,41.99-.06,1.12,0,1.28,.32,1.27,1.33-.06,4.12-.06,8.23,0,12.35,.01,.93-.26,1.1-1.13,1.1-9.04-.03-18.07-.02-27.11-.02Z"/><path class="b" d="M361.12,84.69c-8.84,0-17.68,0-26.52,0-3.71,0-5.79-2.07-5.79-5.79,0-14.11,0-28.22-.02-42.33,0-.97,.21-1.26,1.23-1.26,16.16,.03,32.31,.03,48.47,0,.89,0,1.24,.13,1.22,1.15-.07,3.92-.06,7.84,0,11.75,.01,.87-.25,1.04-1.07,1.03-10.84-.03-21.68,0-32.51-.04-.99,0-1.25,.25-1.24,1.24,.05,6.08,.05,12.15,0,18.23,0,1.03,.19,1.33,1.29,1.32,13.96-.05,27.92-.02,41.87-.06,1.04,0,1.32,.21,1.31,1.29-.07,4.12-.06,8.23,0,12.35,.01,.88-.19,1.13-1.11,1.13-9.04-.04-18.08-.02-27.12-.02Z"/><path class="b" d="M358.52,16.01c-9.51,0-19.03-.01-28.54,.02-.93,0-1.21-.2-1.2-1.17,.06-4.15,.05-8.31,0-12.47,0-.84,.12-1.16,1.08-1.16,19.19,.03,38.38,.03,57.56,0,.93,0,1.01,.35,1,1.11-.03,4.2-.05,8.39,0,12.59,.01,.93-.27,1.1-1.14,1.1-9.59-.03-19.19-.02-28.78-.02Z"/><path class="b" d="M283.22,1.25c9.55,0,19.1,.01,28.66-.02,.87,0,1.15,.17,1.14,1.1-.06,4.23-.05,8.47,0,12.7,0,.81-.23,.99-1.01,.99-19.18-.02-38.37-.02-57.55,0-.81,0-1.09-.17-1.08-1.04,.05-4.23,.05-8.47,0-12.7,0-.85,.24-1.05,1.07-1.05,9.59,.03,19.18,.02,28.78,.02Z"/><path class="b" d="M465.59,33.1c-.02-.48-.1-.98,.22-1.41-.02,.48,.16,.99-.22,1.41Z"/><path class="b" d="M466.04,26.15c-.73-.22-.4-.85-.46-1.29-.81-6.56-3.47-12.19-8.49-16.57-5.76-5.04-12.66-6.97-20.16-7.02-9.08-.06-18.16-.03-27.24-.01-3.33,0-5.49,2.15-5.49,5.49-.01,25.67,0,51.33-.03,77,0,.83,.26,.98,1.02,.97,4.64-.03,9.28-.05,13.92,0,.99,.01,1.25-.25,1.24-1.25-.04-8.48,0-16.95-.05-25.43,0-.91,.23-1.14,1.12-1.11,1.96,.08,3.92,.05,5.88,.02,4.91-.08,9.85,.31,14.74-.34,7.7-1.03,14.2-4.24,18.79-10.72,2.72-3.84,4.06-8.2,4.72-12.8,.25-.44-.09-.97,.22-1.41l.24-.03v-1.44c-.2-.96-.2-1.92,0-2.88v-1.2Zm-16.39,3.81c-.49,6.11-4.54,10.75-10.46,12.01-1.38,.29-2.77,.38-4.17,.39-4.56,.01-9.12-.01-13.68,.02-.78,0-1.02-.18-1.01-.99,.04-4.12,.02-8.23,.02-12.35s.03-8.08-.02-12.11c0-.86,.25-1.06,1.07-1.05,4.76,.04,9.52,.01,14.28,.02,2.01,0,3.98,.32,5.87,1.04,5.51,2.08,8.59,7.03,8.1,13.02Z"/><path class="b" d="M159.08,16.41c-8.87-10.32-20.41-15.04-33.91-15.14-8.04-.06-16.07-.01-24.11-.01-3.96,0-5.98,2.01-5.98,5.97,0,11.91,0,23.82,0,37.37-.21,10.31,.09,22.26,0,34.21-.03,3.87,2.03,5.88,5.93,5.88,8.12,0,16.23,0,24.35,0,6.27,0,12.31-1.14,18.09-3.6,25.87-11,33.79-43.53,15.62-64.69Zm-28,52.57c-1.85,.34-3.73,.45-5.61,.45-4.4,0-8.79-.03-13.19,.03-.94,.01-1.09-.27-1.09-1.14,.03-8.43,.02-16.86,.02-25.29,0-8.43,.02-16.86-.03-25.29,0-1.02,.29-1.23,1.26-1.22,4.56,.05,9.11-.01,13.67,.03,11.69,.11,21.5,6.91,24.97,17.66,5.09,15.77-3.64,31.75-20,34.78Z"/><path class="b" d="M238.52,45.33c-2.45-12.78-10.88-21.41-23.32-23.61-9.43-1.67-18.19-.07-25.68,6.25-7.07,5.96-10.71,13.76-11.32,22.88-.86,12.74,3.66,23.11,14.37,30.4,6.53,4.44,13.88,5.69,21.64,4.9,6.89-.71,12.95-3.31,18.22-7.79,.53-.45,.61-.73,.18-1.34-2.13-3-4.2-6.03-6.27-9.07-.36-.54-.56-.7-1.15-.19-3.41,2.99-7.42,4.58-11.93,5.09-9.31,1.05-17.41-4.17-19.93-12.89-.29-1-.2-1.28,.92-1.27,7.24,.05,14.48,.02,21.72,.02s14.56-.02,21.84,.02c.87,0,1.16-.22,1.24-1.09,.39-4.13,.24-8.23-.54-12.3Zm-14.91,1.81c-4.92,.02-9.84,.01-14.75,.01-4.92,0-9.84,0-14.75-.01-.35,0-1.02,.37-.81-.63,2.32-11,16.93-16.14,25.74-9.04,2.89,2.33,4.48,5.44,5.42,8.96,.28,1.04-.44,.71-.85,.71Z"/></svg>