<?xml version="1.0" encoding="UTF-8"?><svg id="a" xmlns="http://www.w3.org/2000/svg" viewBox="0 0 466.13 87.75"><defs><style>.b{fill:#fff;}</style></defs><path class="b" d="M33.8,74.84c10.2,0,20.39,0,30.59,0,1.08,0,2.15-.05,3.22-.28,1.75-.38,2.64-1.26,2.97-3.01,.07-.39,.08-.79,.08-1.19,0-17.29,0-34.57,0-51.86,0-1.36-.33-2.59-1.18-3.68-1.04-1.32-2.39-1.9-4.07-1.89-5.2,.02-10.4,0-15.6,0-15.96,0-31.91,0-47.87,0-1.93,0-2.15-.26-1.86-2.17C.85,5.74,5.19,1.16,10.2,.15c.5-.1,1.03-.1,1.55-.1,19.63,0,39.27-.15,58.9,.07,7.91,.09,12.57,4.87,13.88,11.31,.33,1.61,.49,3.23,.49,4.87,0,18.44,0,36.89,0,55.33,0,3.41-.68,6.65-2.5,9.59-2.16,3.48-5.43,5.21-9.34,6.09-2.18,.49-4.34,.42-6.52,.42-17.84,.01-35.67-.03-53.51,.03-5.42,.02-9.11-2.56-11.71-7.09-.82-1.42-1.1-2.97-1.37-4.54-.15-.88,.27-1.27,1.1-1.29,.56-.02,1.12,0,1.68,0,10.32,0,20.63,0,30.95,0Z"/><path class="b" d="M32.16,68.21H3.73c-.2,0-.4,0-.6,0q-3.06,.02-3.06-3.09c0-14.65,0-29.3,0-43.95,0-1.54,.09-1.66,1.59-1.66,20.15,0,40.31,0,60.46,0,2.02,0,2.26,.27,2.26,2.3,0,2.67,0,5.35,0,8.02,0,2.01-.26,2.28-2.28,2.28-7.6,0-15.2,0-22.79,0-8.44,0-16.88,0-25.31,0-1.62,0-1.69,.07-1.69,1.7,0,1,.04,2-.01,2.99-.04,.85,.36,1.16,1.14,1.14,.32,0,.64,0,.96,0,15.8,0,31.59,0,47.39,0,2.38,0,2.58,.2,2.59,2.59,.01,2.67,.01,5.35,0,8.02,0,1.61-.23,1.85-1.84,1.99-.32,.03-.64,.01-.96,.01-14.92,0-29.83,0-44.75,0-1.16,0-2.32-.05-3.47-.07-.76-.01-1.17,.23-1.1,1.12,.09,1.07,.1,2.16,.03,3.23-.07,1.11,.27,1.54,1.48,1.54,15.8-.02,31.59,0,47.39,.01,2.53,0,3.19,.65,3.19,3.18,0,2.2,0,4.39,0,6.59,0,1.83-.22,2.05-2.07,2.05-10.04,0-20.07,0-30.11,0Z"/><path class="b" d="M285.66,84.62c-8.8,0-17.6,0-26.4,0-3.79,0-5.77-1.97-5.77-5.75-.01-13.77-.03-27.55-.04-41.32q0-2.28,2.34-2.28c11.12,.01,22.24,.03,33.35,.04,4.56,0,9.12-.03,13.68-.03,1.46,0,1.58,.13,1.58,1.57,0,3.55,0,7.11,0,10.66,0,1.68-.06,1.78-1.73,1.78-4.64-.01-9.28-.06-13.91-.07-5.84-.01-11.68,0-17.52,0-1.47,0-1.63,.16-1.63,1.65,0,5.83,0,11.65,0,17.48,0,1.45,.11,1.55,1.58,1.55,12.44,0,24.88,0,37.32,0,1.28,0,2.56-.07,3.83-.07,1.52,0,1.66,.15,1.66,1.62,0,3.87,0,7.75,0,11.62,0,1.6,0,1.61-1.59,1.61-8.92,0-17.84,0-26.76,0v-.04Z"/><path class="b" d="M360.97,84.62c-8.8,0-17.6,0-26.39,0-3.67,0-5.72-2.01-5.73-5.71-.02-14.05,0-28.11,0-42.16,0-1.34,.17-1.49,1.8-1.49,14.36,.01,28.71,.03,43.07,.04,1.6,0,3.2,0,4.8-.04,.9-.02,1.27,.32,1.26,1.27-.04,3.83-.05,7.67,0,11.5,.01,.99-.4,1.27-1.26,1.25-1.04-.03-2.07-.08-3.11-.08-9.56,0-19.11,0-28.67,0-1.62,0-1.8,.15-1.77,1.78,.09,5.71,.09,11.41,0,17.12-.03,1.68,.11,1.79,1.73,1.79,13.16,0,26.31,0,39.47,0,.72,0,1.44-.04,2.15-.04,.78,0,1.14,.4,1.12,1.2-.05,1.63-.08,3.27-.08,4.9,0,2.27,.06,4.55,.07,6.82,.01,1.88,0,1.88-1.83,1.88-8.88,0-17.75,0-26.63,0v-.04Z"/><path class="b" d="M358.6,16.1c-9.36,0-18.71,0-28.07,0-1.67,0-1.68-.01-1.68-1.67,0-3.79,0-7.59,0-11.38q0-1.8,1.78-1.81c14.52,.01,29.03,.03,43.55,.04,4.28,0,8.56-.03,12.83-.04,1.4,0,1.55,.24,1.53,1.61-.05,3.87-.06,7.74-.04,11.61,0,1.46-.08,1.63-1.59,1.63-9.44,0-18.87,0-28.31,0Z"/><path class="b" d="M283.24,16.1c-9.4,0-18.8,0-28.19,0-1.58,0-1.59,0-1.59-1.62,0-3.87,0-7.74,0-11.61,0-1.57,.04-1.61,1.61-1.61,16.2,.01,32.39,.03,48.59,.04,2.68,0,5.36,.01,8.04-.06,1.12-.03,1.49,.42,1.45,1.49-.15,3.99-.13,7.98,0,11.97,.04,1.1-.37,1.44-1.47,1.44-9.48-.03-18.96-.02-28.43-.02Z"/><path class="b" d="M165.13,25.67C157.23,9.48,143.61,1.73,125.75,1.32c-8.15-.19-16.31-.03-24.47-.03-4.18,0-6.13,1.97-6.13,6.19,0,11.82,0,23.63,0,35.45s0,23.86,0,35.8c0,3.93,1.96,5.9,5.89,5.9,8.28,0,16.55-.01,24.83,0,5.98,.01,11.73-1.13,17.27-3.38,21.98-8.95,32.29-34.48,22-55.57Zm-19.18,35.09c-5.12,5.71-11.7,8.4-19.32,8.55-4.67,.09-9.35,.04-14.02,.1-1.24,.02-1.3-.72-1.3-1.63,.03-7.22,.06-14.44,.08-21.66,0-1.04,0-2.08,0-3.11h-.08c0-8.18,0-16.36,0-24.54,0-1.81,.08-1.94,1.88-1.89,5.27,.14,10.55-.23,15.81,.21,11.88,.99,21.45,9.95,23.21,21.75,1.24,8.34-.55,15.87-6.25,22.22Z"/><path class="b" d="M465.73,25.3c-.71-5.63-2.59-10.67-6.43-14.88-5.86-6.43-13.4-9.02-21.88-9.11-9.2-.1-18.39-.03-27.59-.02-3.5,0-5.59,2.11-5.59,5.59,0,12.66,0,25.31,0,37.97h-.04c0,12.78,.01,25.55-.02,38.33,0,1.13,.31,1.53,1.48,1.51,4.4-.06,8.79-.02,13.19-.03,1.48,0,1.63-.14,1.62-1.67-.01-3.11-.06-6.22-.07-9.34-.01-5.11,0-10.22,0-15.33,0-.8,.06-1.4,1.12-1.39,3.56,.04,7.11-.05,10.67,.04,4.32,.11,8.63,.04,12.87-.87,5.88-1.26,10.87-4.05,14.75-8.72,4.09-4.92,5.56-10.81,6.26-16.95,.19-1.67-.12-3.4-.33-5.12Zm-28.3,16.89c-5.31,.35-10.63,.06-15.94,.15-.99,.02-1.09-.56-1.09-1.3,0-3.95,0-7.9,0-11.85,0-3.99,0-7.98,0-11.97,0-.68,.09-1.26,1.03-1.25,5.39,.08,10.8-.21,16.18,.13,6.58,.42,11.33,5.04,12.06,11.49,.83,7.44-4.71,14.11-12.24,14.6Z"/><path class="b" d="M238.6,45.19c-1.34-6.86-4.34-12.81-9.77-17.36-4.81-4.03-10.49-5.88-16.67-6.54-12.75-1.35-24.5,4.88-30.33,16.25-3.21,6.25-4.14,12.92-3.49,19.85,1.16,12.34,7.75,20.91,18.69,26.26,5.81,2.84,12.08,3.15,18.4,2.34,6.29-.81,11.86-3.31,16.76-7.34,.75-.61,.95-1.13,.34-2-2.04-2.86-4.02-5.75-5.99-8.65-.44-.65-.8-.76-1.42-.22-3.35,2.93-7.32,4.39-11.7,5-8.79,1.24-17.22-4-19.87-12.45-.48-1.53-.42-1.62,1.21-1.62,14.23,0,28.47-.02,42.7,.06,1.16,0,1.65-.37,1.74-1.55,.3-4.04,.16-8.05-.61-12.03Zm-15.01,1.95c-4.92-.04-9.83-.02-14.75-.02-4.84,0-9.67-.05-14.51,.03-1.24,.02-.97-.58-.79-1.24,1.02-3.74,3.22-6.62,6.42-8.76,6.36-4.25,14.6-3.82,19.94,1.06,2.34,2.14,3.64,4.89,4.52,7.88,.23,.79,.02,1.04-.84,1.04Z"/></svg>